<?xml version="1.0" encoding="UTF-8"?> <svg xmlns="http://www.w3.org/2000/svg" width="767" height="767" viewBox="0 0 767 767" fill="none"> <path fill-rule="evenodd" clip-rule="evenodd" d="M383.5 767C595.301 767 767 595.301 767 383.5C767 171.699 595.301 0 383.5 0C171.699 0 0 171.699 0 383.5C0 595.301 171.699 767 383.5 767ZM599.606 273.844L599.044 270.169C605.587 305.7 609 342.337 609 379.781C609 381.3 609 382.819 608.981 384.094C609 385.481 609 386.869 609 388.237C609 425.662 605.587 462.3 599.625 494.138L599.531 494.531C594.187 513.431 579.487 528.319 560.456 533.831C525 543.375 384.206 543.375 384.206 543.375C384.206 543.375 243 543.375 207.956 533.831L207.562 533.737C188.906 528.319 174.225 513.431 168.787 494.138L169.369 497.85C155.587 424.556 155.681 342.3 168.787 273.844L168.881 273.45C174.225 254.55 188.925 239.662 207.937 234.15C243.375 224.437 384.187 224.625 384.187 224.625C384.187 224.625 525.356 224.625 560.437 234.15L560.831 234.244C579.487 239.662 594.169 254.55 599.606 273.844ZM339.15 315.712V452.456L456.637 384.188L339.15 315.712Z" fill="white"></path> </svg> 